<svg height="267px" viewBox="0 0 3848 267" version="1.1" xmlns="http://www.w3.org/2000/svg" xmlns:xlink="http://www.w3.org/1999/xlink">

    <g id="Logos" stroke="none" stroke-width="1" fill="none" fill-rule="evenodd">
        <g id="Logo---BI">
            <text id="Snowflake-Usage" font-family="AtlasGrotesk-Regular, Atlas Grotesk" font-size="181.333333" font-weight="normal" letter-spacing="-9.85507246" fill="#0061FF">
                <tspan x="1362.94203" y="220.898551">BI Quarterly Check-in</tspan>
            </text>
            <g id="Logo">
                <g id="Group" fill="#0061FF" transform="translate(0.126294, 0.126294)">
                    <path d="M157.177706,165.565217 L235.515959,215.466799 L157.177706,265.374012 L78.8405797,215.466799 L157.177706,165.565217 Z M234.894244,0 L313.229118,49.906087 L235.441,99.462 L313.230244,149.021085 L234.893118,198.928298 L156.614,149.059 L78.3371263,198.928298 L0,149.021085 L77.788,99.463 L0,49.906087 L78.3382526,0 L156.614,49.868 L234.894244,0 Z M156.614,49.944 L78.885,99.462 L156.614,148.983 L234.343,99.463 L156.614,49.944 Z" id="Combined-Shape"></path>
                </g>
                <g id="Type" transform="translate(365.608696, 38.420290)" fill="#323436">
                    <polygon id="Path" points="828.368621 179.194783 880.017873 110.425207 832.377923 45.4473706 873.178474 45.4473706 900.77191 85.9895549 928.601188 45.4473706 969.165897 45.4473706 920.818424 110.192487 971.760152 179.194783 931.667125 179.194783 900.300227 135.559021 869.876695 179.194783"></polygon>
                    <path d="M764.927302,41.8896894 C805.492011,41.8896894 833.792971,66.5580621 833.792971,111.240398 L833.792971,114.963925 C833.792971,159.18082 805.963694,182.68559 764.927302,182.68559 C721.060814,182.68559 696.297473,159.18082 696.297473,114.963925 L696.297473,111.240398 C696.297473,66.0926211 725.305958,41.8896894 764.927302,41.8896894 Z M765.163143,71.4451925 C745.352471,71.4451925 732.145356,85.1757019 732.145356,111.240398 L732.145356,114.498484 C732.145356,138.701416 744.644947,152.199205 764.927302,152.199205 C785.445498,152.199205 797.945088,138.934137 797.945088,114.498484 L797.945088,111.240398 C797.945088,86.1065839 785.209656,71.4451925 765.163143,71.4451925 Z" id="Path"></path>
                    <path d="M588.175836,1.42108547e-14 L588.175836,68.8852671 C595.722759,51.4312298 610.816604,41.8896894 632.278166,41.8896894 C664.588429,42.1224099 688.644245,64.2308571 688.644245,108.913193 L688.644245,112.869441 C688.644245,157.551776 666.003477,182.68559 631.3348,182.68559 C608.929874,182.68559 594.307711,171.980447 586.99663,154.75913 L584.166534,179.194783 L553.50716,179.194783 L553.50716,1.42108547e-14 L588.175836,1.42108547e-14 Z M620.486099,71.4451925 C600.911268,71.4451925 587.468312,87.0374658 587.468312,110.076795 L587.468312,112.869441 C587.468312,138.003255 600.439586,152.431925 620.014416,152.431925 C640.532612,152.431925 653.032203,139.399578 653.032203,112.869441 L653.032203,109.611354 C653.032203,84.9429814 639.353406,71.4451925 620.486099,71.4451925 Z" id="Path"></path>
                    <path d="M477.12803,41.8896894 C511.796706,41.8896894 534.437474,66.5580621 534.437474,111.705839 L534.437474,115.429366 C534.437474,159.646261 509.202451,182.68559 477.12803,182.68559 C455.430627,182.68559 441.044305,173.14405 433.733224,157.551776 L433.733224,224.668903 L399.064548,224.668903 L399.064548,45.4473706 L428.780556,45.4473706 L432.318176,70.5143106 C439.629257,53.2929938 454.723103,41.8896894 477.12803,41.8896894 Z M466.043487,71.677913 C446.232815,71.677913 433.0257,86.5720248 433.0257,111.473118 L433.0257,114.033043 C433.0257,137.770534 445.761132,152.664646 465.335963,152.664646 C485.618318,152.664646 498.589591,139.399578 498.589591,114.731205 L498.589591,111.705839 C498.589591,84.9429814 484.674952,71.677913 466.043487,71.677913 Z" id="Path"></path>
                    <path d="M315.919422,41.8896894 C356.484131,41.8896894 384.54925,66.5580621 384.54925,111.240398 L384.54925,114.963925 C384.54925,159.18082 356.955814,182.68559 315.919422,182.68559 C272.052934,182.68559 247.053752,159.18082 247.053752,114.963925 L247.053752,111.240398 C247.053752,66.0926211 276.298078,41.8896894 315.919422,41.8896894 Z M315.919422,71.4451925 C296.10875,71.4451925 282.901635,85.1757019 282.901635,111.240398 L282.901635,114.498484 C282.901635,138.701416 295.401226,152.199205 315.68358,152.199205 C335.965935,152.199205 348.701367,138.934137 348.701367,114.498484 L348.701367,111.240398 C348.701367,86.1065839 335.965935,71.4451925 315.919422,71.4451925 Z" id="Path"></path>
                    <path d="M157.13093,179.194783 L192.50713,179.194783 L192.50713,117.756571 C192.50713,89.3646708 199.58237,79.3576894 228.826696,79.3576894 L243.448858,79.3576894 L243.448858,43.7514534 L234.722729,43.7514534 C209.487706,43.7514534 195.573068,54.6893168 190.148717,76.0996025 L185.667732,45.4473706 L157.13093,45.4473706 L157.13093,179.194783 Z" id="Path"></path>
                    <path d="M63.5019205,13.3943592 C104.538313,13.3943592 138.027782,36.7698385 138.027782,90.0628323 L138.027782,101.466137 C138.027782,154.991851 106.425043,179.194783 64.4452859,179.194783 L-1.13686838e-13,179.194783 L-1.13686838e-13,13.3943592 L63.5019205,13.3943592 Z M61.6151899,43.2860124 L35.2406591,43.2860124 L35.2406591,148.708398 L62.7943965,148.708398 C85.9068473,148.708398 101.708217,133.581565 101.708217,100.302534 L101.708217,91.6918758 C101.708217,58.4128447 85.4351646,43.2860124 61.6151899,43.2860124 Z" id="Path"></path>
                </g>
            </g>
        </g>
    </g>
</svg>